<?xml version="1.0" encoding="UTF-8" standalone="no"?>
<!DOCTYPE svg PUBLIC "-//W3C//DTD SVG 1.1//EN" "http://www.w3.org/Graphics/SVG/1.1/DTD/svg11.dtd">
<svg width="100%" height="100%" viewBox="0 0 2000 1240" version="1.1" xmlns="http://www.w3.org/2000/svg" xmlns:xlink="http://www.w3.org/1999/xlink" xml:space="preserve" xmlns:serif="http://www.serif.com/" style="fill-rule:evenodd;clip-rule:evenodd;stroke-linejoin:round;stroke-miterlimit:2;">
    <g transform="matrix(1,0,0,1,-2018,-2723)">
        <g id="Final-version---Workshop" serif:id="Final version - Workshop" transform="matrix(1.11027,0,0,0.999873,123.303,2723)">
            <rect x="1706.52" y="0" width="1801.36" height="1240.16" style="fill:none;"/>
            <clipPath id="_clip1">
                <rect x="1706.52" y="0" width="1801.36" height="1240.16"/>
            </clipPath>
            <g clip-path="url(#_clip1)">
                <g transform="matrix(29.0542,0,0,19.0793,-821.199,-591.46)">
                    <rect x="87" y="31" width="62" height="65" style="fill:rgb(18,6,6);"/>
                </g>
                <g transform="matrix(0.90068,0,0,1.00013,-7749.39,7.27689e-11)">
                    <g transform="matrix(1,0,-0.125603,1.02057,4146.49,-51.0287)">
                        <rect x="6090" y="50" width="783" height="2430.32" style="fill:rgb(237,52,47);fill-opacity:0.15;"/>
                    </g>
                    <g transform="matrix(1,0,-0.0355625,1.02057,4018.91,-51.0287)">
                        <rect x="6090" y="50" width="783" height="2430.32" style="fill:rgb(237,52,47);fill-opacity:0.3;"/>
                    </g>
                    <g transform="matrix(1,0,0.24376,1.02057,3718.11,-51.0287)">
                        <rect x="6090" y="50" width="783" height="2430.32" style="fill:rgb(237,52,47);fill-opacity:0.5;"/>
                    </g>
                    <g transform="matrix(1.12962,0,0.277813,1.02057,2930.21,-51.0287)">
                        <rect x="6090" y="50" width="783" height="2430.32" style="fill:rgb(237,52,47);"/>
                    </g>
                </g>
                <g transform="matrix(3.49521,0,0,3.88113,1194.08,0.0912701)">
                    <circle cx="123.7" cy="198.2" r="50.9" style="fill:rgb(155,155,169);"/>
                    <path d="M121.6,124.1C84,124.1 53.5,153.7 53.5,190.1C53.5,226.5 84,256.1 121.6,256.1C159.2,256.1 189.7,226.5 189.7,190.1C189.7,153.7 159.2,124.1 121.6,124.1ZM123.7,254.4C92.7,254.4 67.6,229.3 67.6,198.3C67.6,167.3 92.7,142.2 123.7,142.2C154.7,142.2 179.8,167.3 179.8,198.3C179.8,229.3 154.6,254.4 123.7,254.4Z" style="fill:white;fill-rule:nonzero;"/>
                    <path d="M49.8,183.8C49.8,145.3 82,114.2 121.6,114.2C153.4,114.2 180.4,134.3 189.8,162.1C185.4,127.8 155.2,101.2 118.6,101.2C78.9,101.2 46.8,132.4 46.8,170.8C46.8,178.4 48.1,185.7 50.4,192.5C50,189.7 49.8,186.8 49.8,183.8Z" style="fill:rgb(188,185,205);fill-rule:nonzero;"/>
                    <path d="M101.7,191.3L175.816,827.5L87.6,827.5C87.6,827.5 107.5,253 98.6,208.3L101.7,191.3Z" style="fill:rgb(211,211,227);fill-rule:nonzero;"/>
                    <path d="M123.7,174.3L116.7,176.3L101.7,191.3L175.816,827.5L270.723,827.5L123.7,174.3Z" style="fill:rgb(188,185,205);fill-rule:nonzero;"/>
                    <path d="M123.7,174.3L146.7,186.3C146.7,186.3 219.728,502.5 323.728,827.5L270.723,827.5L123.7,174.3Z" style="fill:rgb(155,155,169);fill-rule:nonzero;"/>
                </g>
                <g transform="matrix(1.20726,0,0,1.17548,-2409.93,354.647)">
                    <g transform="matrix(3.36047,0,0,3.8324,-4200.09,-7342.79)">
                        <text x="2444.43px" y="1977.84px" style="font-family:'MontserratRoman-Medium', 'Montserrat';font-weight:100;font-size:48.931px;fill:rgb(237,52,47);">W<tspan x="2494.58px 2524.43px 2542.68px 2569.84px " y="1977.84px 1977.84px 1977.84px 1977.84px ">orks</tspan>hop</text>
                    </g>
                    <g transform="matrix(2.61099,0,0,2.97767,-2364.1,-5534.08)">
                        <text x="2444.43px" y="1977.84px" style="font-family:'SourceCodePro-Regular', 'Source Code Pro', monospace;font-size:33.588px;fill:rgb(248,173,171);">online</text>
                    </g>
                    <g transform="matrix(0.738274,0,0,0.841954,2019.99,-1083.36)">
                        <text x="2429.51px" y="1567.4px" style="font-family:'SourceSansPro-Black', 'Source Sans Pro', sans-serif;font-weight:900;font-size:237.573px;fill:rgb(253,247,248);">JS</text>
                    </g>
                </g>
            </g>
        </g>
    </g>
</svg>
