<?xml version="1.0" encoding="UTF-8" standalone="no"?>
<svg width="100%" height="100%" viewBox="0 0 512 512" xmlns="http://www.w3.org/2000/svg">
	<path class="fill-bg-color" d="M512,153.6c-0,-84.774 -68.826,-153.6 -153.6,-153.6l-204.8,0c-84.774,0 -153.6,68.826 -153.6,153.6l-0,204.8c-0,84.774 68.826,153.6 153.6,153.6l204.8,0c84.774,0 153.6,-68.826 153.6,-153.6l-0,-204.8Z" fill="#ee3124"/>

	<clipPath id="clip">
		<path d="M512,153.6c-0,-84.774 -68.826,-153.6 -153.6,-153.6l-204.8,0c-84.774,0 -153.6,68.826 -153.6,153.6l-0,204.8c-0,84.774 68.826,153.6 153.6,153.6l204.8,0c84.774,0 153.6,-68.826 153.6,-153.6l-0,-204.8Z"/>
	</clipPath>

	<g clip-path="url(#clip)">
		<ellipse cx="232.164" cy="371.58" rx="95.531" ry="95.426" fill="#9b9ba9"/>
		<path class="fill-fg-color" d="M158.811,460.28c-35.144,-22.071 -58.4,-60.389 -58.4,-103.886c-0,-68.242 57.243,-123.735 127.812,-123.735c70.569,0 127.812,55.493 127.812,123.735c0,32.067 -12.639,61.319 -33.362,83.319c-0.853,-3.501 -1.684,-6.915 -2.494,-10.247c10.916,-16.563 17.276,-36.387 17.276,-57.699c-0,-58.118 -47.109,-105.175 -105.291,-105.175c-58.182,0 -105.29,47.057 -105.29,105.175c-0,29.733 12.33,56.571 32.165,75.695l-0.228,12.818Z" fill="#fff"/>
		<path d="M166.475,179.603c3.191,-19.123 21.771,-31.871 41.478,-28.496c11.824,2.062 21.396,9.373 26.276,18.935c-1.689,-15.186 -13.701,-28.309 -30.03,-30.934c-19.706,-3.375 -38.287,9.561 -41.478,28.497c-1.313,7.686 0.188,14.998 3.566,21.559c-0.375,-3.187 -0.375,-6.374 0.188,-9.561Z" fill="#9b9ba9"/>
		<path d="M192.751,159.356l6.944,32.433l-23.836,7.124l-1.501,-22.685l18.393,-16.872Z" fill="#bcb9cd"/>
		<path d="M192.751,159.356l28.152,5.624l6.945,25.309l-29.842,3.375l-5.255,-34.308Z" fill="#9b9ba9"/>
		<path d="M93.466,344.583c0,-72.179 60.434,-130.484 134.757,-130.484c59.683,-0 110.358,37.683 128,89.801c-8.258,-64.304 -64.939,-114.173 -133.631,-114.173c-74.51,-0 -134.756,58.493 -134.756,130.484c-0,14.248 2.44,27.934 6.756,40.682c-0.75,-5.249 -1.126,-10.686 -1.126,-16.31Z" fill="#bcb9cd"/>
		<path d="M190.874,358.644l148.457,1192.73l-174.92,0l20.645,-1160.86l5.818,-31.871Z" fill="#d3d3e3"/>
		<path d="M232.164,326.773l-41.29,31.871l139.104,1192.73l178.97,0l-276.784,-1224.6Z" fill="#bcb9cd"/>
		<path d="M232.164,326.773l43.167,22.497c0,-0 137.009,592.615 332.2,1201.92l-99.43,0.187l-275.937,-1224.6Z" fill="#9b9ba9"/>
		<path class="fill-fg-color" d="M176.063,79l-0,0l-0.001,0.003c-0.021,0.091 -5.533,26.973 -5.533,26.973l-0.005,0.024l0,0c-0.475,2.324 -0.295,4.056 -0.295,4.056l2.064,32.052c0,-0 5.255,-5.534 15.953,-8.532c12.2,-3.459 19.519,1.614 19.519,1.614l-5.63,-30.207c-0,0 -0.39,-1.692 -1.588,-3.745l-0,0l-0.001,-0c-0.128,-0.22 -12.874,-22.847 -12.874,-22.847c0,-0 -1.992,-4.848 -7.434,-3.329c-2.845,0.59 -3.84,2.472 -4.175,3.938Z" fill="#fff"/>
	</g>
</svg>
