<?xml version="1.0" encoding="UTF-8" standalone="no"?>
<!DOCTYPE svg PUBLIC "-//W3C//DTD SVG 1.1//EN" "http://www.w3.org/Graphics/SVG/1.1/DTD/svg11.dtd">
<svg width="100%" height="100%" viewBox="0 0 512 512" version="1.1" xmlns="http://www.w3.org/2000/svg" xmlns:xlink="http://www.w3.org/1999/xlink" xml:space="preserve" xmlns:serif="http://www.serif.com/" style="fill-rule:evenodd;clip-rule:evenodd;stroke-linejoin:round;stroke-miterlimit:2;">
    <path d="M512,153.6c-0,-84.774 -68.826,-153.6 -153.6,-153.6l-204.8,-0c-84.774,-0 -153.6,68.826 -153.6,153.6l-0,204.8c-0,84.774 68.826,153.6 153.6,153.6l204.8,-0c84.774,-0 153.6,-68.826 153.6,-153.6l-0,-204.8Z" style="fill:#ee3124;"/>
    <g>
        <ellipse cx="232.164" cy="371.58" rx="95.531" ry="95.426" style="fill:#9b9ba9;"/>
        <path d="M228.223,232.659c-70.569,0 -127.812,55.493 -127.812,123.735c-0,68.242 57.243,123.735 127.812,123.735c70.569,-0 127.812,-55.493 127.812,-123.735c0,-68.242 -57.243,-123.735 -127.812,-123.735Zm3.941,244.283c-58.182,-0 -105.29,-47.057 -105.29,-105.175c-0,-58.118 47.108,-105.175 105.29,-105.175c58.182,0 105.291,47.057 105.291,105.175c-0,58.118 -47.297,105.175 -105.291,105.175Z" style="fill:#fff;fill-rule:nonzero;"/>
        <path d="M166.475,179.603c3.191,-19.123 21.771,-31.871 41.478,-28.496c11.824,2.062 21.396,9.373 26.276,18.935c-1.689,-15.186 -13.701,-28.309 -30.03,-30.934c-19.706,-3.375 -38.287,9.561 -41.478,28.497c-1.313,7.686 0.188,14.998 3.566,21.559c-0.375,-3.187 -0.375,-6.374 0.188,-9.561Z" style="fill:#9b9ba9;fill-rule:nonzero;"/>
        <path d="M192.751,159.356l6.944,32.433l-23.836,7.124l-1.501,-22.685l18.393,-16.872Z" style="fill:#bcb9cd;fill-rule:nonzero;"/>
        <path d="M192.751,159.356l28.152,5.624l6.945,25.309l-29.842,3.375l-5.255,-34.308Z" style="fill:#9b9ba9;fill-rule:nonzero;"/>
        <path d="M93.466,344.583c0,-72.179 60.434,-130.484 134.757,-130.484c59.683,-0 110.358,37.683 128,89.801c-8.258,-64.304 -64.939,-114.173 -133.631,-114.173c-74.51,-0 -134.756,58.493 -134.756,130.484c-0,14.248 2.44,27.934 6.756,40.682c-0.75,-5.249 -1.126,-10.686 -1.126,-16.31Z" style="fill:#bcb9cd;fill-rule:nonzero;"/>
        <path d="M191.249,357.894l148.082,1193.48l-174.92,0c-0,0 37.349,-1077.06 20.645,-1160.86l6.193,-32.621Z" style="fill:#d3d3e3;fill-rule:nonzero;"/>
        <path d="M232.164,326.773l-13.138,3.749l-28.152,28.122l139.104,1192.73l178.97,0l-276.784,-1224.6Z" style="fill:#bcb9cd;fill-rule:nonzero;"/>
        <path d="M232.164,326.773l43.167,22.497c0,-0 137.009,592.615 332.2,1201.92l-99.43,0.187l-275.937,-1224.6Z" style="fill:#9b9ba9;fill-rule:nonzero;"/>
        <path d="M170.229,116.048l2.064,26.06c0,-0 5.255,-4.5 15.953,-6.937c12.2,-2.812 19.519,1.312 19.519,1.312l-5.63,-24.559c-0,-0 -3.191,-11.249 -19.331,-8.437c-13.889,2.25 -12.575,12.561 -12.575,12.561Z" style="fill:#fff;fill-rule:nonzero;"/>
        <path d="M171.167,107.799c1.502,-2.812 4.692,-5.624 11.449,-6.936c7.883,-1.313 12.762,0.562 15.578,2.999l-1.877,-7.874c-0,0 -2.44,-8.999 -15.578,-6.749c-11.261,1.875 -10.135,10.124 -10.135,10.124l0.563,8.436Z" style="fill:#fff;fill-rule:nonzero;"/>
        <path d="M176.047,89.052c0.563,-1.125 2.064,-2.438 4.88,-3c3.378,-0.562 5.443,0.187 6.569,1.312l-1.69,-9.561c0,0 -1.126,-3.937 -6.568,-2.812c-4.88,0.75 -4.317,4.312 -4.317,4.312l1.126,9.749Z" style="fill:#fff;fill-rule:nonzero;"/>
        <path d="M174.733,73.304c0.563,-0.938 1.502,-1.875 3.754,-2.25c2.627,-0.375 4.317,0.187 5.255,0.937l-1.126,-8.624c-0,0 -0.751,-2.999 -5.255,-2.249c-3.754,0.562 -3.379,3.374 -3.379,3.374l0.751,8.812Z" style="fill:#fff;fill-rule:nonzero;"/>
    </g>
</svg>
