<?xml version="1.0" encoding="UTF-8" standalone="no"?>
<svg width="100%" height="100%" viewBox="0 0 613 613" xmlns="http://www.w3.org/2000/svg">
	<rect class="fill-bg-color" fill="transparent" x="0" y="0" width="613" height="613"/>

	<clipPath id="clip">
		<rect x="0" y="0" width="100%" height="100%"/>
	</clipPath>

	<g class="fill-fg-color" fill="white" clip-path="url(#clip)" clip-rule="evenodd">
		<g>
			<path d="M95.806,251.193c-24.819,-9.868 -42.306,-33.531 -42.306,-61.093c0,-36.4 30.5,-66 68.1,-66c37.6,-0 68.1,29.6 68.1,66c0,20.464 -9.64,38.779 -24.766,50.896l-0.335,-1.371l-0.572,-2.351c9.757,-10.089 15.773,-23.827 15.773,-38.974c-0,-31 -25.1,-56.1 -56.1,-56.1c-31,0 -56.1,25.1 -56.1,56.1c0,20.816 11.318,38.973 28.143,48.657l0.027,1.686c0.009,0.63 0.018,1.259 0.028,1.888l0.008,0.662Z"/>
			<path d="M95.621,240.651c-13.749,-9.117 -22.821,-24.733 -22.821,-42.451c-0,-28.092 22.808,-50.9 50.9,-50.9c28.092,-0 50.9,22.808 50.9,50.9c0,12.54 -4.545,24.028 -12.075,32.901c-7.136,-29.398 -10.953,-45.926 -10.953,-45.926c-0.329,-1.424 -1.264,-2.632 -2.559,-3.308l-23,-12c-1.136,-0.592 -2.455,-0.726 -3.687,-0.375l-7,2c-0.817,0.234 -1.561,0.672 -2.162,1.272l-15,15c-0.718,0.719 -1.201,1.639 -1.383,2.639l-3.1,17c-0.113,0.62 -0.108,1.255 0.015,1.873c0.955,4.797 1.577,15.704 1.925,31.375Z"/>
			<path d="M88.7,95.8c1.7,-10.2 11.6,-17 22.1,-15.2c6.3,1.1 11.4,5 14,10.1c-0.9,-8.1 -7.3,-15.1 -16,-16.5c-10.5,-1.8 -20.4,5.1 -22.1,15.2c-0.7,4.1 0.1,8 1.9,11.5c-0.2,-1.7 -0.2,-3.4 0.1,-5.1Z"/>
			<path d="M105.711,88.152l9.986,1.997c-0,-0 2.418,8.822 2.418,8.822c-0,-0 -10.633,0.753 -10.633,0.753l-1.771,-11.572Z"/>
			<path d="M102.7,85l15,3l3.631,13.25l-15.972,1.13l-11.698,3.131l-0.761,-11.511l9.8,-9Zm1.205,1.261l12.994,2.599c-0,-0 3.146,11.478 3.146,11.478c-0,0 -13.837,0.98 -13.837,0.98l-2.303,-15.057Z" fill-rule="evenodd"/>
			<path d="M49.8,183.8c-0,-38.5 32.2,-69.6 71.8,-69.6c31.8,0 58.8,20.1 68.2,47.9c-4.4,-34.3 -34.6,-60.9 -71.2,-60.9c-39.7,0 -71.8,31.2 -71.8,69.6c0,7.6 1.3,14.9 3.6,21.7c-0.4,-2.8 -0.6,-5.7 -0.6,-8.7Z"/>
			<path d="M188.599,485.406l-30.059,18.589c-2.947,1.822 -4.74,5.04 -4.74,8.505c-0,0.036 0.532,4.14 3.756,10.092c5.62,10.376 20.181,32.026 49.262,43.758l57.654,256.15c0,0 -84.204,0 -84.204,0c-0,-0 -73.322,-629.375 -73.322,-629.375c0,-0 12.373,-12.373 12.373,-12.373l0.665,-0.19l68.615,304.844Z"/>
			<path d="M87.6,827.5c0,0 19.9,-574.5 11,-619.2l3.1,-17l15,-15l7,-2l23,12c0,0 29.856,129.273 78.565,307.426c-4.595,-5.994 -6.233,-12.115 -6.233,-12.115c-0.846,-3.028 -3.066,-5.482 -5.994,-6.626c-2.928,-1.143 -6.224,-0.844 -8.898,0.81l-12.392,7.664c0,-0 -69.163,-307.28 -69.163,-307.28c0,-0 -5.099,1.457 -5.099,1.456c-0,0 -14.212,14.212 -14.212,14.212c2.785,23.903 73.878,634.153 73.878,634.153c-0,0 91.695,0 91.695,0c-5.02,-22.305 -58.126,-258.211 -58.126,-258.211l2.162,0.787c9.989,3.314 21.525,5.454 34.79,5.713c22.593,79.837 48.214,166.208 76.055,253.211l-236.128,0Z"/>
			<path d="M90.7,61.9l1.1,13.9c0,0 2.8,-2.4 8.5,-3.7c6.5,-1.5 10.4,0.7 10.4,0.7l-3,-13.1c0,-0 -1.7,-6 -10.3,-4.5c-7.4,1.2 -6.7,6.7 -6.7,6.7Z"/>
			<path d="M91.2,57.5c0.8,-1.5 2.5,-3 6.1,-3.7c4.2,-0.7 6.8,0.3 8.3,1.6l-1,-4.2c0,-0 -1.3,-4.8 -8.3,-3.6c-6,1 -5.4,5.4 -5.4,5.4l0.3,4.5Z"/>
			<path d="M93.8,47.5c0.3,-0.6 1.1,-1.3 2.6,-1.6c1.8,-0.3 2.9,0.1 3.5,0.7l-0.9,-5.1c0,0 -0.6,-2.1 -3.5,-1.5c-2.6,0.4 -2.3,2.3 -2.3,2.3l0.6,5.2Z"/>
			<path d="M93.1,39.1c0.3,-0.5 0.8,-1 2,-1.2c1.4,-0.2 2.3,0.1 2.8,0.5l-0.6,-4.6c-0,0 -0.4,-1.6 -2.8,-1.2c-2,0.3 -1.8,1.8 -1.8,1.8l0.4,4.7Z"/>
		</g>
		<g>
			<path d="M506.8,351.4l44.6,-28.4c0,-0 -19.2,-46.1 -82.3,-44.6c-63,1.5 -83.4,43.1 -83,79.2c0.4,33.1 15,51.9 43.1,68c24.1,13.9 63.8,28.8 73,38.1c9.2,9.3 11.1,15.8 10.4,24.6c-0.8,8.8 -10,24.6 -27.3,27.3c0,0 -41.9,10 -70,-34.2l-43.1,26.5c0,0 10.4,30.4 49.2,46.5c38.8,16.1 88.8,11.1 113.8,-7.3c0,0 31.1,-18.8 31.9,-62.7c0.8,-43.8 -24.6,-64.2 -55,-79.2c-30.4,-15 -60.1,-25.7 -66.9,-34.2c-8.8,-11.1 -11.1,-25.8 2.7,-39.2c13.9,-13.5 45,-11.2 58.9,19.6Z"/>
			<path d="M248.4,564.3c0,-0 41.5,1.5 66.1,-24.6c22,-22 19,-51.8 20,-68.7l0,-189.1l-55.9,-0l0,200.9c0,-0 1.5,32.3 -30.8,32.3c-29.8,-0 -38.4,-30.8 -38.4,-30.8l-45.6,28.2c0,0.1 19.5,50.8 84.6,51.8Z"/>
		</g>
	</g>
</svg>
