<?xml version="1.0" encoding="utf-8"?>
<!-- Generator: Adobe Illustrator 18.1.1, SVG Export Plug-In . SVG Version: 6.00 Build 0)  -->
<svg version="1.1" id="Layer_1" xmlns="http://www.w3.org/2000/svg" xmlns:xlink="http://www.w3.org/1999/xlink" x="0px" y="0px"
	 viewBox="0 0 272.8 273.1" enable-background="new 0 0 272.8 273.1" xml:space="preserve">
<rect y="0" fill="#EE3124" width="612.4" height="613"/>
<g>
	<g>
		<defs>
			<polygon id="SVGID_1_" points="609.5,612.9 0.6,612.9 0.3,0 609.3,0 			"/>
		</defs>
		<clipPath id="SVGID_2_">
			<use xlink:href="#SVGID_1_"  overflow="visible"/>
		</clipPath>
		<g clip-path="url(#SVGID_2_)">
			<circle fill="#9B9BA9" cx="123.7" cy="198.2" r="50.9"/>
			<path fill="#FFFFFF" d="M121.6,124.1c-37.6,0-68.1,29.6-68.1,66s30.5,66,68.1,66s68.1-29.6,68.1-66S159.2,124.1,121.6,124.1z
				 M123.7,254.4c-31,0-56.1-25.1-56.1-56.1c0-31,25.1-56.1,56.1-56.1s56.1,25.1,56.1,56.1C179.8,229.3,154.6,254.4,123.7,254.4z"/>
			<path fill="#9B9BA9" d="M88.7,95.8c1.7-10.2,11.6-17,22.1-15.2c6.3,1.1,11.4,5,14,10.1c-0.9-8.1-7.3-15.1-16-16.5
				c-10.5-1.8-20.4,5.1-22.1,15.2c-0.7,4.1,0.1,8,1.9,11.5C88.4,99.2,88.4,97.5,88.7,95.8z"/>
			<polygon fill="#BCB9CD" points="102.7,85 106.4,102.3 93.7,106.1 92.9,94 			"/>
			<polygon fill="#9B9BA9" points="102.7,85 117.7,88 121.4,101.5 105.5,103.3 			"/>
			<path fill="#BCB9CD" d="M49.8,183.8c0-38.5,32.2-69.6,71.8-69.6c31.8,0,58.8,20.1,68.2,47.9c-4.4-34.3-34.6-60.9-71.2-60.9
				c-39.7,0-71.8,31.2-71.8,69.6c0,7.6,1.3,14.9,3.6,21.7C50,189.7,49.8,186.8,49.8,183.8z"/>
			<path fill="#D3D3E3" d="M101.9,190.9l78.9,633.8l-93.2,1.7c0,0,19.9-573.4,11-618.1L101.9,190.9z"/>
			<polygon fill="#BCB9CD" points="123.7,174.3 116.7,176.3 101.7,191.3 175.7,824.4 215.2,825.3 215.2,825.4 270.7,825.4 			"/>
			<path fill="#9B9BA9" d="M123.7,174.3l23,12c0,0,73,316.1,177,641.1h-53L123.7,174.3z"/>
			<path fill="#FFFFFF" d="M90.7,61.9l1.1,13.9c0,0,2.8-2.4,8.5-3.7c6.5-1.5,10.4,0.7,10.4,0.7l-3-13.1c0,0-1.7-6-10.3-4.5
				C90,56.4,90.7,61.9,90.7,61.9z"/>
			<path fill="#FFFFFF" d="M91.2,57.5c0.8-1.5,2.5-3,6.1-3.7c4.2-0.7,6.8,0.3,8.3,1.6l-1-4.2c0,0-1.3-4.8-8.3-3.6
				c-6,1-5.4,5.4-5.4,5.4L91.2,57.5z"/>
			<path fill="#FFFFFF" d="M93.8,47.5c0.3-0.6,1.1-1.3,2.6-1.6c1.8-0.3,2.9,0.1,3.5,0.7L99,41.5c0,0-0.6-2.1-3.5-1.5
				c-2.6,0.4-2.3,2.3-2.3,2.3L93.8,47.5z"/>
			<path fill="#FFFFFF" d="M93.1,39.1c0.3-0.5,0.8-1,2-1.2c1.4-0.2,2.3,0.1,2.8,0.5l-0.6-4.6c0,0-0.4-1.6-2.8-1.2
				c-2,0.3-1.8,1.8-1.8,1.8L93.1,39.1z"/>
		</g>
	</g>
</g>
<path fill="#FFFFFF" d="M506.8,351.4l44.6-28.4c0,0-19.2-46.1-82.3-44.6c-63,1.5-83.4,43.1-83,79.2c0.4,33.1,15,51.9,43.1,68
	c24.1,13.9,63.8,28.8,73,38.1s11.1,15.8,10.4,24.6c-0.8,8.8-10,24.6-27.3,27.3c0,0-41.9,10-70-34.2l-43.1,26.5
	c0,0,10.4,30.4,49.2,46.5s88.8,11.1,113.8-7.3c0,0,31.1-18.8,31.9-62.7c0.8-43.8-24.6-64.2-55-79.2c-30.4-15-60.1-25.7-66.9-34.2
	c-8.8-11.1-11.1-25.8,2.7-39.2C461.8,318.3,492.9,320.6,506.8,351.4z"/>
<path fill="#FFFFFF" d="M248.4,564.3c0,0,41.5,1.5,66.1-24.6c22-22,19-51.8,20-68.7V281.9h-55.9v200.9c0,0,1.5,32.3-30.8,32.3
	c-29.8,0-38.4-30.8-38.4-30.8l-45.6,28.2C163.8,512.6,183.3,563.3,248.4,564.3z"/>
</svg>
