<?xml version="1.0" encoding="utf-8"?>
<!-- Generator: Adobe Illustrator 16.0.0, SVG Export Plug-In . SVG Version: 6.00 Build 0)  -->
<!DOCTYPE svg PUBLIC "-//W3C//DTD SVG 1.1//EN" "http://www.w3.org/Graphics/SVG/1.1/DTD/svg11.dtd">
<svg version="1.1" id="Layer_1" xmlns="http://www.w3.org/2000/svg" xmlns:xlink="http://www.w3.org/1999/xlink" x="0px" y="0px"
	 width="1000px" height="640px" viewBox="0 0 1000 640" enable-background="new 0 0 1000 640" xml:space="preserve">
<image display="none" overflow="visible" width="1000" height="640" xlink:href="logo-ver-1.jpg" >
</image>
<g>
	<g>
		<g>
			<rect x="126.784" y="341.492" fill="#F9AB8A" width="131.834" height="8.94"/>
		</g>
		<polygon fill="#F9AB8A" points="198.808,282.438 213.288,264.306 206.237,254.484 192.765,254.484 179.166,254.484 
			172.114,264.306 186.468,282.438 		"/>
		<g>
			<path fill="#71C2AC" d="M245.02,334.315h-8.939c0-23.925-19.518-43.441-43.441-43.441s-43.315,19.516-43.315,43.441h-8.94
				c0-28.834,23.421-52.381,52.382-52.381C221.725,281.935,245.02,305.481,245.02,334.315z"/>
		</g>
	</g>
	<g>
		<path fill="#71C2AC" d="M653.995,287.601c-1.638-2.015-3.65-3.525-6.17-4.533c-2.518-1.008-5.54-1.512-9.064-1.512
			c-2.771,0-5.289,0.378-7.43,1.134c-2.141,0.754-4.03,1.762-5.54,2.896c-1.638,1.133-3.022,2.392-4.03,3.777
			c-0.126,0.252-0.378,0.503-0.504,0.629v-28.961h-6.799v72.025h6.799v-25.939c0-2.142,0.378-4.407,1.007-6.673
			c0.757-2.267,1.764-4.282,3.149-6.17c1.384-1.889,3.147-3.399,5.288-4.533c2.014-1.133,4.532-1.764,7.429-1.764
			c2.141,0,4.155,0.252,5.793,0.756c1.637,0.504,2.895,1.385,4.028,2.645c1.133,1.259,2.016,3.021,2.52,5.288
			c0.629,2.267,0.881,5.164,0.881,8.689v27.827h6.8v-29.465c0-3.273-0.378-6.295-1.008-8.94
			C656.767,292.007,655.632,289.615,653.995,287.601z"/>
		<path fill="#71C2AC" d="M707.385,288.608c-2.141-2.392-4.786-4.155-7.681-5.289c-6.045-2.392-13.6-2.392-19.392,0.251
			c-3.021,1.386-5.541,3.275-7.682,5.667c-2.141,2.392-3.777,5.162-4.91,8.437c-1.133,3.146-1.764,6.673-1.764,10.198
			c0,3.904,0.631,7.429,1.89,10.703c1.259,3.273,3.021,6.044,5.288,8.31c2.267,2.393,5.037,4.156,8.186,5.415
			c3.146,1.26,6.674,1.889,10.324,1.889c3.903,0,7.807-0.755,11.459-2.393c3.776-1.511,6.798-3.777,8.938-6.548l0.63-0.754
			l-4.91-4.156l-0.629,0.881c-0.756,1.007-1.763,1.889-2.896,2.645c-1.133,0.756-2.518,1.511-3.904,2.141
			c-1.385,0.63-2.895,1.007-4.407,1.386c-4.406,0.881-8.437,0.504-11.71-1.009c-2.141-1.007-4.154-2.267-5.665-3.901
			c-1.639-1.639-2.896-3.653-3.778-5.919c-0.755-2.016-1.26-4.03-1.385-6.297h41.049v-1.007c0-4.407-0.63-8.437-1.764-11.836
			C711.288,293.896,709.524,291.001,707.385,288.608z M690.134,287.978c4.784,0,8.562,1.512,11.585,4.282
			c2.77,2.644,4.532,6.673,5.161,11.71h-33.619c0.251-2.015,0.756-3.903,1.511-5.666c0.882-2.016,2.015-3.904,3.526-5.415
			c1.384-1.511,3.147-2.771,5.163-3.651C685.475,288.356,687.741,287.978,690.134,287.978z"/>
		<rect x="722.117" y="261.032" fill="#71C2AC" width="6.798" height="72.025"/>
		<path fill="#71C2AC" d="M779.156,289.363c-1.889-2.392-4.281-4.407-7.178-5.792c-2.895-1.385-6.296-2.14-10.073-2.14
			c-3.021,0-5.665,0.504-7.933,1.386c-2.141,0.88-4.028,1.889-5.541,3.021c-1.384,1.134-2.517,2.266-3.399,3.4l-0.251-3.526
			c0-0.629-0.126-1.259-0.126-2.015l-0.125-1.006h-6.549l0.127,1.132c0.126,0.756,0.126,1.512,0.126,2.141c0,0.63,0,1.386,0,2.015
			v65.98h6.673v-23.294c1.385,0.755,3.021,1.385,4.911,2.141c2.518,1.007,5.666,1.511,9.19,1.511c3.653,0,7.053-0.63,10.075-1.889
			c3.146-1.259,5.791-3.022,8.058-5.288c2.267-2.267,4.155-5.037,5.414-8.312c1.259-3.148,1.89-6.799,1.89-10.702
			c0-3.651-0.505-7.178-1.386-10.45C782.431,294.525,781.045,291.756,779.156,289.363z M759.261,327.895
			c-2.013,0-3.776-0.252-5.413-0.631c-1.637-0.378-3.023-0.882-4.156-1.385c-1.133-0.504-2.141-1.132-3.021-1.638l-1.513-1.133
			v-14.605c0-1.763,0.126-3.527,0.252-5.288c0.127-1.639,0.505-3.022,0.882-4.282c0.504-1.384,1.259-2.896,2.14-4.282
			c0.883-1.383,2.016-2.518,3.274-3.524c1.259-1.009,2.646-1.764,4.281-2.394c1.638-0.63,3.401-0.882,5.414-0.882
			c3.022,0,5.541,0.505,7.43,1.638c2.015,1.007,3.651,2.518,4.911,4.281c1.259,1.889,2.267,4.029,2.771,6.421
			c0.629,2.518,0.88,5.163,0.88,7.806c0,3.148-0.503,6.046-1.384,8.438c-1.008,2.392-2.267,4.406-3.903,6.045
			c-1.637,1.635-3.651,2.895-5.793,3.776C764.172,327.391,761.78,327.895,759.261,327.895z"/>
		<path fill="#71C2AC" d="M831.789,288.608c-2.141-2.392-4.784-4.155-7.681-5.289c-6.043-2.392-13.6-2.392-19.391,0.251
			c-3.022,1.386-5.54,3.275-7.682,5.667c-2.141,2.392-3.777,5.162-4.911,8.437c-1.133,3.146-1.762,6.673-1.762,10.198
			c0,3.904,0.629,7.429,1.889,10.703c1.259,3.273,3.021,6.044,5.287,8.31c2.267,2.393,5.037,4.156,8.186,5.415
			c3.148,1.26,6.674,1.889,10.325,1.889c3.903,0,7.807-0.755,11.458-2.393c3.778-1.511,6.801-3.777,8.941-6.548l0.629-0.754
			l-4.91-4.156l-0.63,0.881c-0.757,1.007-1.764,1.889-2.896,2.645c-1.134,0.756-2.519,1.511-3.903,2.141
			c-1.386,0.63-2.896,1.007-4.406,1.386c-4.409,0.881-8.437,0.504-11.711-1.009c-2.14-1.007-4.155-2.267-5.667-3.901
			c-1.636-1.639-2.896-3.653-3.776-5.919c-0.756-2.016-1.259-4.03-1.387-6.297h41.051v-1.007c0-4.407-0.631-8.437-1.764-11.836
			C835.692,293.896,833.93,291.001,831.789,288.608z M814.539,287.978c4.785,0,8.562,1.512,11.584,4.282
			c2.771,2.644,4.532,6.673,5.163,11.71h-33.621c0.254-2.015,0.757-3.903,1.513-5.666c0.881-2.016,2.015-3.904,3.524-5.415
			c1.386-1.511,3.148-2.771,5.163-3.651C809.88,288.356,812.146,287.978,814.539,287.978z"/>
		<path fill="#71C2AC" d="M872.46,283.068c-1.259-0.503-2.77-0.756-4.407-0.756c-2.77,0-5.163,0.379-7.176,1.259
			c-2.015,0.756-3.904,1.764-5.416,3.022c-1.511,1.133-2.77,2.519-3.776,3.777c-0.126,0.127-0.252,0.378-0.378,0.505
			c0-0.882,0-1.763,0-2.645l-0.127-2.267c0-0.755-0.125-1.51-0.125-2.267l-0.126-1.006h-6.548l0.125,1.132
			c0.127,0.757,0.127,1.512,0.127,2.141c0,0.63,0,1.386,0,2.015v45.079h6.8v-25.688c0-2.267,0.377-4.532,1.134-6.799
			c0.755-2.267,1.889-4.156,3.273-5.919c1.385-1.762,3.022-3.146,4.909-4.154c1.89-1.007,4.03-1.51,6.297-1.51
			c0.504,0,1.133,0,1.763,0.125c0.505,0,1.008,0.126,1.385,0.378l1.008,0.503l2.015-6.548L872.46,283.068z"/>
	</g>
	<g>
		<path fill="#888888" d="M423.694,282.816h10.703l11.207,38.403l12.088-38.403h8.311l12.088,38.655l11.081-38.655h10.072
			l-16.746,50.24h-9.57l-11.71-35.13l-11.584,35.13h-9.065L423.694,282.816z"/>
		<path fill="#888888" d="M548.856,325.753c-0.63,0.629-1.387,1.511-2.646,2.519c-1.134,1.007-2.644,2.015-4.532,2.896
			c-1.89,0.881-4.029,1.762-6.548,2.393c-2.519,0.629-5.288,1.007-8.437,1.007c-3.904,0-7.429-0.63-10.703-1.89
			c-3.273-1.259-6.044-3.147-8.311-5.539s-4.03-5.163-5.288-8.562c-1.26-3.274-1.89-7.052-1.89-11.081
			c0-3.652,0.63-7.177,1.89-10.325c1.258-3.148,2.896-5.917,5.163-8.31c2.266-2.393,4.911-4.155,7.932-5.541
			c3.022-1.385,6.422-2.015,10.073-2.015c4.282,0,8.059,0.881,11.08,2.518c3.148,1.638,5.666,3.904,7.682,6.547
			c2.015,2.772,3.399,5.918,4.407,9.445c0.881,3.526,1.385,7.176,1.385,11.081h-39.663c0.126,2.266,0.503,4.281,1.511,6.17
			c0.882,1.889,2.141,3.525,3.651,4.91c1.511,1.386,3.274,2.392,5.163,3.273c1.888,0.756,4.029,1.133,6.17,1.133
			c4.28,0,7.807-0.754,10.451-2.141c2.77-1.384,4.658-2.895,5.917-4.154L548.856,325.753z M540.041,303.592
			c-0.252-3.903-1.637-7.177-4.155-9.947c-2.393-2.771-5.918-4.155-10.325-4.155c-2.267,0-4.406,0.377-6.17,1.133
			c-1.889,0.756-3.399,1.888-4.658,3.148c-1.26,1.259-2.266,2.769-3.022,4.533c-0.756,1.637-1.133,3.4-1.133,5.288H540.041z"/>
		<path fill="#888888" d="M594.06,326.635c-0.378,0.377-1.007,1.134-1.763,2.014c-0.883,0.882-1.89,1.764-3.274,2.646
			c-1.385,0.881-3.022,1.636-4.784,2.267c-1.889,0.629-4.029,1.007-6.422,1.007c-3.147,0-6.17-0.63-8.815-1.89
			c-2.769-1.259-5.161-2.896-7.177-5.162c-2.014-2.267-3.525-4.91-4.658-8.184c-1.134-3.148-1.637-6.801-1.637-10.703
			c0-4.786,0.882-8.814,2.518-12.214c1.638-3.4,3.777-6.296,6.296-8.437c2.518-2.14,5.288-3.776,8.311-4.784
			c3.023-1.007,5.793-1.512,8.438-1.512c3.65,0,6.421,0.378,8.437,1.26c2.014,0.88,3.525,1.511,4.657,1.889v-23.925h9.696v66.988
			c0,1.636,0,3.273,0.126,5.035h-9.57L594.06,326.635z M594.06,293.896c-0.756-0.629-2.015-1.386-4.029-2.267
			c-1.89-1.007-4.784-1.512-8.311-1.512c-2.393,0-4.533,0.378-6.549,1.26c-2.014,0.881-3.65,2.14-5.162,3.651
			c-1.511,1.636-2.643,3.525-3.399,5.792c-0.882,2.268-1.259,4.911-1.259,7.808c0,2.393,0.252,4.658,0.882,6.799
			c0.628,2.141,1.511,4.03,2.644,5.54c1.133,1.638,2.645,2.771,4.534,3.779c1.887,0.881,4.027,1.384,6.547,1.384
			c2.518,0,4.659-0.503,6.547-1.384c1.763-0.883,3.274-2.142,4.407-3.527c1.134-1.385,1.89-2.896,2.519-4.658
			c0.504-1.637,0.755-3.274,0.755-4.659v-18.006H594.06z"/>
	</g>
	<path fill="#888888" d="M297.905,290.37h-8.94l1.007-5.413h15.235l-1.133,6.799c4.155-4.03,10.703-8.939,18.258-8.939
		c5.918,0,10.451,3.146,11.081,9.694c4.155-4.029,10.828-9.694,18.887-9.694c7.556,0,12.718,5.035,10.829,15.487l-4.155,24.302
		c-0.629,3.399,0.504,5.289,3.903,5.289c2.393,0,5.037-1.009,6.549-1.764l-0.882,5.54c-2.141,0.756-4.911,1.638-7.555,1.638
		c-7.179,0-9.57-4.912-8.437-11.333l4.155-23.547c1.007-6.044-0.756-9.947-6.171-9.947c-6.043,0-12.465,5.037-17.376,9.445
		l-6.17,35.508h-6.674l6.296-34.88c1.007-6.044-0.63-9.947-6.17-9.947c-6.17,0-12.465,5.163-17.503,9.57l-6.295,35.383h-6.422
		L297.905,290.37z"/>
	<path fill="#888888" d="M408.207,282.816c-4.281,0-8.185,2.14-11.081,4.532l2.394,4.03c2.77-2.015,5.161-2.896,7.177-2.896
		c2.141,0,3.399,1.008,3.399,3.903c0,6.044-6.17,19.393-14.48,31.73l-12.088-39.284h-13.473l-1.007,5.413h8.688l13.473,40.042
		c-8.562,11.08-18.509,20.146-26.442,20.146c-3.399,0-6.295-1.638-8.185-3.273l-2.896,4.029c2.77,2.393,6.547,4.659,11.584,4.659
		c22.665,0,51.5-48.856,51.5-64.218C416.518,287.223,414.378,282.816,408.207,282.816z"/>
</g>
</svg>
