<?xml version="1.0" encoding="UTF-8" standalone="no"?>
<!DOCTYPE svg PUBLIC "-//W3C//DTD SVG 1.1//EN" "http://www.w3.org/Graphics/SVG/1.1/DTD/svg11.dtd">
<svg width="100%" height="100%" viewBox="0 0 4000 2480" version="1.1" xmlns="http://www.w3.org/2000/svg" xmlns:xlink="http://www.w3.org/1999/xlink" xml:space="preserve" xmlns:serif="http://www.serif.com/" style="fill-rule:evenodd;clip-rule:evenodd;stroke-linejoin:round;stroke-miterlimit:2;">
    <g>
        <path d="M1851.73,769.011c-76.333,-30.347 -130.116,-103.125 -130.116,-187.894c0,-111.951 93.805,-202.987 209.446,-202.987c115.641,-0 209.446,91.036 209.446,202.987c0,62.938 -29.649,119.267 -76.169,156.534l-1.03,-4.216l-1.76,-7.23c30.009,-31.032 48.511,-73.284 48.511,-119.869c0,-95.342 -77.197,-172.539 -172.539,-172.539c-95.343,0 -172.539,77.197 -172.539,172.539c-0,64.023 34.809,119.863 86.556,149.647l0.083,5.187c0.028,1.936 0.056,3.872 0.084,5.807l0.027,2.034Zm214.979,-38.512l-0.758,-3.114c29.803,-31.596 48.107,-74.18 48.107,-121.049c0,-97.552 -78.986,-176.539 -176.539,-176.539c-97.553,0 -176.539,78.987 -176.539,176.539c-0,64.691 34.734,121.217 86.593,151.964c-0.001,-0 0.046,2.931 0.046,2.931l0.026,1.756c-71.875,-31.017 -122.031,-100.845 -122.031,-181.87c0,-109.78 92.048,-198.987 205.446,-198.987c113.399,-0 205.446,89.207 205.446,198.987c0,59.46 -27.014,112.892 -69.797,149.382Z" style="fill:#fff;"/>
        <path d="M1851.16,736.589c-42.285,-28.04 -70.188,-76.067 -70.188,-130.56c-0,-86.4 70.146,-156.546 156.546,-156.546c86.4,-0 156.546,70.146 156.546,156.546c0,38.569 -13.978,73.899 -37.136,101.19c-21.948,-90.416 -33.689,-141.25 -33.689,-141.25c-1.011,-4.378 -3.886,-8.095 -7.87,-10.173l-70.738,-36.907c-3.492,-1.822 -7.55,-2.234 -11.338,-1.152l-21.529,6.151c-2.512,0.718 -4.801,2.064 -6.649,3.912l-46.133,46.134c-2.21,2.21 -3.694,5.04 -4.255,8.115l-9.534,52.284c-0.348,1.907 -0.332,3.862 0.046,5.762c2.938,14.751 4.849,48.298 5.921,96.494Zm-4.185,-7.814c-37.601,-27.795 -62.003,-72.443 -62.003,-122.746c-0,-84.193 68.353,-152.546 152.546,-152.546c84.192,-0 152.546,68.353 152.546,152.546c0,34.705 -11.615,66.719 -31.162,92.358c-20.71,-85.451 -31.765,-133.318 -31.765,-133.318c-1.274,-5.517 -4.898,-10.2 -9.918,-12.819c0,-0 -70.738,-36.907 -70.738,-36.907c-4.4,-2.296 -9.514,-2.816 -14.287,-1.452c0,-0 -21.529,6.151 -21.529,6.151c-3.166,0.905 -6.05,2.601 -8.378,4.93c-0,-0 -46.134,46.133 -46.134,46.133c-2.784,2.785 -4.655,6.352 -5.361,10.226c0,0 -9.534,52.285 -9.534,52.285c-0.438,2.402 -0.418,4.865 0.058,7.26c2.753,13.825 4.568,44.28 5.659,87.899l-0,-0Z" style="fill:#fff;"/>
        <path d="M1829.87,291.091c5.229,-31.371 35.677,-52.285 67.97,-46.749c19.376,3.384 35.062,15.378 43.058,31.064c-2.768,-24.912 -22.452,-46.441 -49.209,-50.747c-32.293,-5.536 -62.742,15.685 -67.97,46.748c-2.153,12.61 0.308,24.605 5.844,35.369c-0.616,-5.228 -0.616,-10.456 0.307,-15.685Zm-2.732,-6.278c-0.366,-4.146 -0.216,-8.4 0.524,-12.732c0,-0.003 0.001,-0.007 0.002,-0.01c4.869,-28.93 33.273,-48.626 63.349,-43.47c0.014,0.003 0.027,0.005 0.04,0.007c17.091,2.75 31.099,13.03 39.047,26.702c-8.574,-7.449 -19.385,-12.78 -31.572,-14.908c-0.004,-0.001 -0.008,-0.001 -0.012,-0.002c-32.547,-5.579 -63.295,14.044 -71.378,44.413Z" style="fill:#fff;"/>
        <path d="M1872.93,257.875l46.134,9.227l11.168,40.749l-49.123,3.478l-35.979,9.629l-2.341,-35.403l30.141,-27.68Zm-0.091,5.515l6.763,44.201l-30.802,8.244c0,-0 -1.893,-28.631 -1.893,-28.631l25.932,-23.814Zm3.796,-1.638l39.964,7.993c0,0 9.676,35.303 9.676,35.303c-0,0 -42.555,3.013 -42.555,3.013l-7.085,-46.309Z" style="fill:#fff;"/>
        <path d="M1710.23,561.741c-0,-118.409 99.033,-214.06 220.825,-214.06c97.803,0 180.843,61.819 209.754,147.32c-13.533,-105.492 -106.415,-187.302 -218.98,-187.302c-122.1,0 -220.826,95.958 -220.826,214.059c-0,23.375 3.998,45.826 11.072,66.74c-1.23,-8.611 -1.845,-17.531 -1.845,-26.757Zm-3.543,-14.026c-1.106,-8.497 -1.684,-17.16 -1.684,-25.957c-0,-115.929 96.971,-210.059 216.826,-210.059c96.13,0 177.673,60.736 206.003,144.715c-38.285,-67.178 -112.085,-112.733 -196.777,-112.733c-119.182,0 -216.908,90 -224.368,204.034Z" style="fill:#fff;"/>
        <path d="M1915.99,538.674l21.529,-6.151l70.738,36.907c-0,-0 458.834,1704.47 544.46,1972.05l-168.788,0l0,0c0,0 -282.015,0 -282.015,0l282.015,0c-15.441,-68.6 -450.516,-2007.79 -450.516,-2007.79l-17.423,4.978l-44.555,44.555c8.564,73.515 230.479,1958.25 230.479,1958.25l-275.423,0c0,0 61.204,-1766.91 33.831,-1904.39l9.534,-52.284l46.134,-46.134Zm240.842,972.68c74.462,331.804 148.91,663.611 223.397,995.408l6.901,30.72l160.117,0c-88.075,-278.534 -526.279,-1905.46 -542.396,-1965.32l-66.567,-34.73l218.548,973.92Zm-286.762,-905.419l-5.678,31.133c26.256,139.09 -30.532,1806.35 -33.761,1900.41l266.784,0l-5.696,-48.378c-34.132,-289.895 -197.958,-1681.35 -221.649,-1883.17Z" style="fill:#fff;"/>
        <path d="M1836.02,186.829l3.383,42.751c0,-0 8.612,-7.382 26.143,-11.38c19.991,-4.613 31.986,2.153 31.986,2.153l-9.227,-40.29c-0,0 -5.229,-18.453 -31.678,-13.84c-22.76,3.691 -20.607,20.606 -20.607,20.606Zm3.161,-0.25c-0.004,-0.05 -0.01,-0.1 -0.016,-0.15c0,0 -0.555,-4.881 2.903,-9.443c2.514,-3.318 7.075,-6.338 15.066,-7.634c0.012,-0.002 0.025,-0.004 0.037,-0.006c9.555,-1.666 16.059,-0.123 20.405,2.476c5.672,3.393 7.465,8.45 7.66,9.047c0.003,0.01 7.88,34.402 7.88,34.402c-5.765,-1.653 -15.493,-3.111 -28.28,-0.16c-10.722,2.445 -18.264,6.119 -22.703,8.769c-0.001,0 -2.952,-37.301 -2.952,-37.301Z" style="fill:#fff;"/>
        <path d="M1837.56,173.297c2.46,-4.613 7.689,-9.227 18.761,-11.38c12.917,-2.153 20.914,0.923 25.527,4.921l-3.075,-12.917c-0,-0 -3.999,-14.763 -25.528,-11.072c-18.453,3.075 -16.608,16.608 -16.608,16.608l0.923,13.84Zm2.645,-7.985l-0.404,-6.066c-0.005,-0.073 -0.013,-0.145 -0.023,-0.217c0,-0 -0.428,-3.652 2.177,-7.092c1.957,-2.584 5.539,-4.916 11.812,-5.961c0.004,-0.001 0.009,-0.002 0.014,-0.003c7.588,-1.3 12.72,-0.127 16.129,1.903c4.344,2.587 5.664,6.436 5.792,6.839c0.004,0.012 1.325,5.562 1.325,5.562c-5.118,-2.059 -12.034,-3.019 -21.227,-1.487c-0.028,0.005 -0.056,0.01 -0.084,0.015c-7.143,1.389 -12.079,3.759 -15.511,6.507l-0,0Z" style="fill:#fff;"/>
        <path d="M1845.56,142.541c0.922,-1.845 3.383,-3.998 7.996,-4.921c5.536,-0.922 8.919,0.308 10.764,2.153l-2.768,-15.685c0,-0 -1.845,-6.459 -10.764,-4.613c-7.997,1.23 -7.074,7.073 -7.074,7.073l1.846,15.993Zm2.455,-6.376l-1.152,-9.98c-0.005,-0.044 -0.011,-0.088 -0.017,-0.131c-0,-0 -0.071,-0.85 0.534,-1.656c0.625,-0.834 1.836,-1.474 3.89,-1.79c0.054,-0.008 0.107,-0.018 0.16,-0.029c2.506,-0.518 4.229,-0.237 5.38,0.447c1.084,0.644 1.544,1.574 1.662,1.851c0.001,0.004 1.679,9.512 1.679,9.512c-1.965,-0.342 -4.317,-0.362 -7.116,0.104c-0.034,0.006 -0.067,0.012 -0.101,0.019c-1.935,0.387 -3.562,0.966 -4.919,1.653l0,0Z" style="fill:#fff;"/>
        <path d="M1842.42,105.142l-0.246,-2.891c0,0 -0.615,-4.613 5.536,-5.536c7.382,-1.23 8.612,3.691 8.612,3.691l1.845,14.148c-1.537,-1.231 -4.305,-2.153 -8.611,-1.538c-3.691,0.615 -5.229,2.153 -6.151,3.691l-0.984,-11.554l2.912,-3.17l0.738,8.664c0.853,-0.311 1.832,-0.57 2.964,-0.758c0.024,-0.004 0.048,-0.008 0.072,-0.011c2.004,-0.287 3.743,-0.285 5.241,-0.092l-1.117,-8.565c-0.256,-0.346 -1.641,-1.938 -4.999,-1.379c-0.017,0.003 -0.034,0.006 -0.051,0.008c-1.227,0.184 -2.017,0.522 -2.463,1.021c-0.384,0.43 -0.39,1.065 -0.39,1.065c0,-0 -0.009,-0.084 -0.009,-0.084l-2.899,3.29Z" style="fill:#fff;"/>
    </g>
</svg>
