<?xml version="1.0" encoding="UTF-8" standalone="no"?>
<!DOCTYPE svg PUBLIC "-//W3C//DTD SVG 1.1//EN" "http://www.w3.org/Graphics/SVG/1.1/DTD/svg11.dtd">
<svg width="100%" height="100%" viewBox="0 0 500 820" version="1.1" xmlns="http://www.w3.org/2000/svg" xmlns:xlink="http://www.w3.org/1999/xlink" xml:space="preserve" xmlns:serif="http://www.serif.com/" style="fill-rule:evenodd;clip-rule:evenodd;stroke-linejoin:round;stroke-miterlimit:2;">
    <g>
        <circle cx="112.45" cy="200.7" r="50.9" style="fill:#9b9ba9;"/>
        <path d="M110.35,126.6c-37.6,-0 -68.1,29.6 -68.1,66c-0,36.4 30.5,66 68.1,66c37.6,-0 68.1,-29.6 68.1,-66c-0,-36.4 -30.5,-66 -68.1,-66Zm2.1,130.3c-31,-0 -56.1,-25.1 -56.1,-56.1c-0,-31 25.1,-56.1 56.1,-56.1c31,-0 56.1,25.1 56.1,56.1c-0,31 -25.2,56.1 -56.1,56.1Z" style="fill:#fff;fill-rule:nonzero;"/>
        <path d="M77.45,98.3c1.7,-10.2 11.6,-17 22.1,-15.2c6.3,1.1 11.4,5 14,10.1c-0.9,-8.1 -7.3,-15.1 -16,-16.5c-10.5,-1.8 -20.4,5.1 -22.1,15.2c-0.7,4.1 0.1,8 1.9,11.5c-0.2,-1.7 -0.2,-3.4 0.1,-5.1Z" style="fill:#9b9ba9;fill-rule:nonzero;"/>
        <path d="M91.45,87.5l3.7,17.3l-12.7,3.8l-0.8,-12.1l9.8,-9Z" style="fill:#bcb9cd;fill-rule:nonzero;"/>
        <path d="M91.45,87.5l15,3l3.7,13.5l-15.9,1.8l-2.8,-18.3Z" style="fill:#9b9ba9;fill-rule:nonzero;"/>
        <path d="M38.55,186.3c-0,-38.5 32.2,-69.6 71.8,-69.6c31.8,-0 58.8,20.1 68.2,47.9c-4.4,-34.3 -34.6,-60.9 -71.2,-60.9c-39.7,-0 -71.8,31.2 -71.8,69.6c-0,7.6 1.3,14.9 3.6,21.7c-0.4,-2.8 -0.6,-5.7 -0.6,-8.7Z" style="fill:#bcb9cd;fill-rule:nonzero;"/>
        <path d="M90.65,193.4l78.9,636.6l-93.2,0c-0,0 19.9,-574.5 11,-619.2l3.3,-17.4Z" style="fill:#d3d3e3;fill-rule:nonzero;"/>
        <path d="M112.45,176.8l-7,2l-15,15l74.116,636.2l95.358,0l-147.474,-653.2Z" style="fill:#bcb9cd;fill-rule:nonzero;"/>
        <path d="M112.45,176.8l23,12c-0,-0 73,316.1 177,641.1l-52.977,0.1l-147.023,-653.2Z" style="fill:#9b9ba9;fill-rule:nonzero;"/>
        <path d="M79.45,64.4l1.1,13.9c-0,-0 2.8,-2.4 8.5,-3.7c6.5,-1.5 10.4,0.7 10.4,0.7l-3,-13.1c-0,-0 -1.7,-6 -10.3,-4.5c-7.4,1.2 -6.7,6.7 -6.7,6.7Z" style="fill:#fff;fill-rule:nonzero;"/>
        <path d="M79.95,60c0.8,-1.5 2.5,-3 6.1,-3.7c4.2,-0.7 6.8,0.3 8.3,1.6l-1,-4.2c-0,-0 -1.3,-4.8 -8.3,-3.6c-6,1 -5.4,5.4 -5.4,5.4l0.3,4.5Z" style="fill:#fff;fill-rule:nonzero;"/>
        <path d="M82.55,50c0.3,-0.6 1.1,-1.3 2.6,-1.6c1.8,-0.3 2.9,0.1 3.5,0.7l-0.9,-5.1c-0,-0 -0.6,-2.1 -3.5,-1.5c-2.6,0.4 -2.3,2.3 -2.3,2.3l0.6,5.2Z" style="fill:#fff;fill-rule:nonzero;"/>
        <path d="M81.85,41.6c0.3,-0.5 0.8,-1 2,-1.2c1.4,-0.2 2.3,0.1 2.8,0.5l-0.6,-4.6c-0,-0 -0.4,-1.6 -2.8,-1.2c-2,0.3 -1.8,1.8 -1.8,1.8l0.4,4.7Z" style="fill:#fff;fill-rule:nonzero;"/>
    </g>
</svg>
