<?xml version="1.0" encoding="UTF-8" standalone="no"?>
<svg width="100%" height="100%" viewBox="0 0 4000 2480" xmlns:xlink="http://www.w3.org/1999/xlink">
	<clipPath id="clip">
		<rect x="0" y="0" width="100%" height="100%"/>
	</clipPath>
	<g clip-path="url(#clip)">
		<rect class="fill-bg-color" fill="#ee3124" x="0" y="0" width="100%" height="100%"/>

		<g class="fill-fg-color" fill="#ffffff">
			<path d="M1851.73,769.011c-76.333,-30.347 -130.116,-103.125 -130.116,-187.894c0,-111.951 93.805,-202.987 209.446,-202.987c115.641,-0 209.446,91.036 209.446,202.987c0,62.938 -29.649,119.267 -76.169,156.534l-1.03,-4.216l-1.76,-7.23c30.009,-31.032 48.511,-73.284 48.511,-119.869c0,-95.342 -77.197,-172.539 -172.539,-172.539c-95.343,0 -172.539,77.197 -172.539,172.539c-0,64.023 34.809,119.863 86.556,149.647l0.083,5.187c0.028,1.936 0.056,3.872 0.084,5.807l0.027,2.034Z"/>
			<path d="M1851.16,736.589c-42.285,-28.04 -70.188,-76.067 -70.188,-130.56c-0,-86.4 70.146,-156.546 156.546,-156.546c86.4,-0 156.546,70.146 156.546,156.546c0,38.569 -13.978,73.899 -37.136,101.19c-21.948,-90.416 -33.689,-141.25 -33.689,-141.25c-1.011,-4.378 -3.886,-8.095 -7.87,-10.173l-70.738,-36.907c-3.492,-1.822 -7.55,-2.234 -11.338,-1.152l-21.529,6.151c-2.512,0.718 -4.801,2.064 -6.649,3.912l-46.133,46.134c-2.21,2.21 -3.694,5.04 -4.255,8.115l-9.534,52.284c-0.348,1.907 -0.332,3.862 0.046,5.762c2.938,14.751 4.849,48.298 5.921,96.494Z"/>
			<path d="M1829.87,291.091c5.229,-31.371 35.677,-52.285 67.97,-46.749c19.376,3.384 35.062,15.378 43.058,31.064c-2.768,-24.912 -22.452,-46.441 -49.209,-50.747c-32.293,-5.536 -62.742,15.685 -67.97,46.748c-2.153,12.61 0.308,24.605 5.844,35.369c-0.616,-5.228 -0.616,-10.456 0.307,-15.685Z"/>
			<path d="M1882.19,267.568l30.71,6.143c0,-0 7.437,27.133 7.437,27.133c-0,-0 -32.702,2.314 -32.702,2.314l-5.445,-35.59Z"/>
			<path d="M1872.93,257.875l46.134,9.227l11.168,40.749l-49.123,3.478l-35.979,9.629l-2.341,-35.403l30.141,-27.68Zm3.705,3.877l39.964,7.993c0,0 9.676,35.303 9.676,35.303c-0,0 -42.555,3.013 -42.555,3.013l-7.085,-46.309Z" fill-rule="evenodd"/>
			<path d="M1710.23,561.741c-0,-118.409 99.033,-214.06 220.825,-214.06c97.803,0 180.843,61.819 209.754,147.32c-13.533,-105.492 -106.415,-187.302 -218.98,-187.302c-122.1,0 -220.826,95.958 -220.826,214.059c-0,23.375 3.998,45.826 11.072,66.74c-1.23,-8.611 -1.845,-17.531 -1.845,-26.757Z"/>
			<path d="M1926.09,551.781l444.381,1974.32c0,0 -258.975,0 -258.975,0c-0,0 -225.505,-1935.68 -225.505,-1935.68c0,0 38.054,-38.053 38.054,-38.053l2.045,-0.585Z"/>
			<path d="M2008.25,569.43c-0,-0 458.834,1704.47 544.46,1972.05l-726.226,0c0,0 61.204,-1766.91 33.831,-1904.39l9.534,-52.284l46.134,-46.134l21.529,-6.151l70.738,36.907Zm375.672,1967.44c-15.441,-68.601 -449.838,-1998.57 -449.838,-1998.57c-0,0 -15.684,4.481 -15.684,4.481c-0,0 -43.71,43.71 -43.71,43.71c8.565,73.515 227.217,1950.38 227.217,1950.38c-0,-0 282.015,-0 282.015,-0Z"/>
			<path d="M1836.02,186.829l3.383,42.751c0,-0 8.612,-7.382 26.143,-11.38c19.991,-4.613 31.986,2.153 31.986,2.153l-9.227,-40.29c-0,0 -5.229,-18.453 -31.678,-13.84c-22.76,3.691 -20.607,20.606 -20.607,20.606Z"/>
			<path d="M1837.56,173.297c2.46,-4.613 7.689,-9.227 18.761,-11.38c12.917,-2.153 20.914,0.923 25.527,4.921l-3.075,-12.917c-0,-0 -3.999,-14.763 -25.528,-11.072c-18.453,3.075 -16.608,16.608 -16.608,16.608l0.923,13.84Z"/>
			<path d="M1845.56,142.541c0.922,-1.845 3.383,-3.998 7.996,-4.921c5.536,-0.922 8.919,0.308 10.764,2.153l-2.768,-15.685c0,-0 -1.845,-6.459 -10.764,-4.613c-7.997,1.23 -7.074,7.073 -7.074,7.073l1.846,15.993Z"/>
			<path d="M1843.4,116.707c0.922,-1.538 2.46,-3.076 6.151,-3.691c4.306,-0.615 7.074,0.307 8.611,1.538l-1.845,-14.148c-0,0 -1.23,-4.921 -8.612,-3.691c-6.151,0.923 -5.536,5.536 -5.536,5.536l1.231,14.456Z"/>
		</g>
	</g>
</svg>
